<?xml version="1.0" encoding="UTF-8" standalone="no"?>
<!-- Created with Inkscape (http://www.inkscape.org/) -->
<svg id="svg3849" xmlns:rdf="http://www.w3.org/1999/02/22-rdf-syntax-ns#" xmlns="http://www.w3.org/2000/svg" height="192" width="192" version="1.1" xmlns:cc="http://creativecommons.org/ns#" xmlns:dc="http://purl.org/dc/elements/1.1/">
 <metadata id="metadata3854">
  <rdf:RDF>
   <cc:Work rdf:about="">
    <dc:format>image/svg+xml</dc:format>
    <dc:type rdf:resource="http://purl.org/dc/dcmitype/StillImage"/>
    <dc:title/>
   </cc:Work>
  </rdf:RDF>
 </metadata>
 <g id="layer1" fill="#000" transform="translate(0,-860.36218)">
  <path id="path4471" style="baseline-shift:baseline;block-progression:tb;color:#000000;direction:ltr;text-indent:0;text-align:start;enable-background:accumulate;text-transform:none;" d="m30.989,930.01,0,2,0,49.031,0,2,2,0,16.281,0c2.3678,0,4.6383-0.31862,6.6562-1.25,1.9028-0.87823,3.4689-2.1044,4.7812-3.5625,1.3394-1.4883,2.3184-3.215,2.9688-5.0938v-0.0312l0.03125-0.0312c0.56079-1.8226,0.90625-3.7928,0.90625-5.875,0-1.3212-0.23445-2.641-0.5-3.9688v-0.0625-0.0312c-0.3536-1.4144-0.85728-2.7994-1.5938-4.125-0.77923-1.4026-1.8448-2.583-3-3.5938-0.49341-0.43173-1.0507-0.80904-1.625-1.1562,0.6062-0.77444,1.1685-1.6531,1.6875-2.5938l0.03125-0.0312c1.1265-2.1778,1.6875-4.7409,1.6875-7.5625,0-1.9171-0.37595-3.7316-1.0312-5.4062l-0.03125-0.0312c-0.66957-1.6367-1.6617-3.1441-3.0312-4.4375s-3.0752-2.3416-5.0938-3.0625c-2.0583-0.73512-4.3655-1.0573-6.9375-1.125h-0.03125-0.03125-12.125-2zm5.5312,5.5312,8.5312,0c0.02423,0.00071,0.03837-0.00078,0.0625,0,1.9768,0.064,3.6173,0.33878,5,0.78125,1.3629,0.49977,2.4597,1.1634,3.2188,1.875,0.83592,0.78368,1.4125,1.5938,1.8125,2.5938,0.41707,1.0427,0.625,2.1185,0.625,3.2812,0,1.3107-0.22496,2.4998-0.5625,3.625-0.33754,1.1251-0.66774,1.9285-1.25,2.75-1.2812,1.8076-4.7984,4.5996-4.7984,4.5996s2.0468,1.0924,3.0078,1.7385c0.93324,0.62752,1.8123,1.3858,2.6656,2.0681,0.23015,0.18403,1.898,1.4876,2.4375,2.2187,0.61283,0.93373,1.0392,1.943,1.375,3.0625,0.27659,1.1304,0.4375,2.162,0.4375,3.0625,0,1.4556-0.22504,2.8228-0.65625,4.0625v0.0312c-0.44247,1.3274-1.0081,2.3099-1.8438,3.25-0.84175,0.94696-1.7875,1.6603-3,2.1875-1.1678,0.50772-2.6185,0.78125-4.3125,0.78125h-12.75v-41.969z" fill-rule="nonzero"/>
  <path id="path4473" d="m91.84,980.99,13.733,0-14.797-50.373-13.51,0.93318-15.893,49.44,13.733,0,5.3523-12.297,6.0687-0.36041zm11.689-1.533-10.603,0-4.3434-12.519-10.284,0-4.2156,12.519-10.667,0,16.442-46.029,8.9322-0.16227c2.2356,7.7925,5.668,15.66,7.9674,23.197,2.2356,7.537,4.4711,15.202,6.7705,22.994" stroke="#000" stroke-miterlimit="4" stroke-dasharray="none" stroke-width="4"/>
  <path id="path4475" d="m130.77,931.93,0,21.078-11.433-21.078-12.976-0.804,0.77628,49.858,12.902,0,0-21.078,11.497,21.078,12.136,0,0.38848-49.391zm1.533,1.533,9.8364,0,0,45.989-9.581,0-14.052-22.994,0,22.994-9.8364,0,0-45.989,9.6448,0,13.502,23.364z" stroke="#000" stroke-miterlimit="4" stroke-dasharray="none" stroke-width="4"/>
  <path id="path4477" d="m181.58,954.03-16.862,0,0,10.731,5.046,0,0,1.3413c-0.38324,0.76647-1.022,1.3413-1.7884,1.7884-0.83036,0.44711-1.8523,0.63873-3.1298,0.57486-1.9162,0-3.513-0.70261-4.7905-2.1078-1.2774-1.3413-1.8523-3.0659-1.8523-5.2376v-9.2616c0-2.1078,0.51098-3.8324,1.6607-5.1099,1.0858-1.2774,2.6188-1.9162,4.535-1.9162,0.95809,0,1.7884,0.19162,2.491,0.57486,0.63873,0.38324,1.2136,0.89422,1.7246,1.4052,0.44711,0.57485,0.83035,1.1497,1.1497,1.7884,0.25549,0.63873,0.51099,1.2136,0.76648,1.7246l10.22-6.7705c-1.7406-2.8824-3.9283-5.913-6.2245-7.9716-1.1497-0.95809-1.9512-1.7371-3.6758-2.4397-1.7884-0.7026-3.9601-1.0858-6.515-1.2136-3.0659,0-5.7486,0.57485-8.048,1.5968-2.2994,1.0858-4.2795,2.5549-5.8124,4.3434-1.5968,1.7884-2.8104,3.8962-3.5769,6.2596-0.76647,2.4272-1.1497,4.9182-1.1497,7.537v9.8364c0.0639,2.8104,0.51098,5.4292,1.3413,7.8564,0.83036,2.4272,2.0439,4.4711,3.5769,6.1957s3.4492,3.0659,5.7486,4.024c2.2994,1.022,6.5755,1.3338,9.9104,1.6231,5.0153,0.43507,15.102,0.16194,15.102,0.16194zm-15.33,1.533,13.797,0-0.2054,22.671s-9.3992,1.2544-15.507,1.2809c-2.6188,0-4.9182-0.44711-6.8983-1.4691-2.0439-0.95809-3.7685-2.2994-5.1737-3.9601-1.4691-1.6607-2.6188-3.5769-3.4492-5.7486-0.83034-2.1717-1.3413-4.4072-1.533-6.8344v-9.8364c0-2.4272,0.31937-4.7266,1.0858-6.8983,0.76648-2.1717,1.8523-4.0879,3.3214-5.7486,1.4052-1.6607,3.1936-2.9382,5.3015-3.9601,2.1078-1.022,4.535-1.533,7.2815-1.5968,2.1717,0.19162,4.0879,0.63873,5.6847,1.2775,1.533,0.63873,2.8743,1.4052,3.9601,2.2994,1.0858,0.89422,1.9801,1.7884,2.6827,2.6827,0.80439,1.1588,1.4128,2.1561,1.9801,3.3853-1.4052,0.89422-2.6188,1.7246-3.7046,2.491-1.1497,0.76648-2.3633,1.5968-3.6408,2.4272-0.25549-0.51098-0.51097-1.022-0.83035-1.5968-0.38324-0.51099-0.83035-1.022-1.3413-1.533-0.51097-0.4471-1.1497-0.83034-1.9162-1.1497-0.76648-0.25549-1.7246-0.4471-2.7465-0.4471-2.3633,0-4.2156,0.83034-5.6208,2.3633-1.4052,1.5968-2.1078,3.6408-2.1078,6.1957v9.2616c0,1.2775,0.19162,2.491,0.57486,3.5769,0.38324,1.0858,0.9581,2.0439,1.7246,2.8104,0.76648,0.76648,1.5968,1.4052,2.6188,1.8523,1.022,0.44711,2.1078,0.63873,3.2575,0.63873,2.6104-0.0114,5.1105-0.27983,6.0917-2.615,0.41808-1.0481,0.35946-4.1555,0.35946-4.1555h-5.046v-7.6648" stroke="#000" stroke-miterlimit="4" stroke-dasharray="none" stroke-width="4"/>
  <path id="path4483" style="baseline-shift:baseline;block-progression:tb;color:#000000;direction:ltr;text-indent:0;text-align:start;enable-background:accumulate;text-transform:none;" d="m72.35,879.05-5.3607,2.7576,8,44,3.9375-0.6875z"/>
  <path id="path4485" style="baseline-shift:baseline;block-progression:tb;color:#000000;direction:ltr;text-indent:0;text-align:start;enable-background:accumulate;text-transform:none;" d="m90.361,988.59,25.059,56.764,6.8138-6.2521-28.275-51.991z"/>
  <path id="path4487" style="baseline-shift:baseline;block-progression:tb;color:#000000;direction:ltr;text-indent:0;text-align:start;enable-background:accumulate;text-transform:none;" d="m100.42,867.37-8,56,4.455,0.43313,11.881-55.094z"/>
  <path id="path4489" style="baseline-shift:baseline;block-progression:tb;color:#000000;direction:ltr;text-indent:0;text-align:start;enable-background:accumulate;text-transform:none;" d="m28.552,971.5-20.129,1.283,0.94188,6.6545,20-4z"/>
  <path id="path4491" style="baseline-shift:baseline;block-progression:tb;color:#000000;direction:ltr;text-indent:0;text-align:start;enable-background:accumulate;text-transform:none;" d="m163.51,883.19-49.164,41.822,3.7982,2.0543,49.682-34.447z"/>
  <path id="path4493" style="baseline-shift:baseline;block-progression:tb;color:#000000;direction:ltr;text-indent:0;text-align:start;enable-background:accumulate;text-transform:none;" d="m114.61,985.15-3.4407,1.7781,67.871,34.728,2.6644-10.058z"/>
  <path id="path4495" style="baseline-shift:baseline;block-progression:tb;color:#000000;direction:ltr;text-indent:0;text-align:start;enable-background:accumulate;text-transform:none;" d="m46.364,909.99-4.6238,5.2707,21.811,19.612,2.8125-2.8125z"/>
 </g>
</svg>
